<svg xmlns="http://www.w3.org/2000/svg" width="22.222" height="17.973"><path fill="#000000" d="M22.222 2.127c-.816.361-1.695.605-2.617.714.941-.562 1.664-1.45 2.004-2.509-.879.519-1.855.897-2.895 1.1-.83-.881-2.017-1.432-3.328-1.432-2.517 0-4.56 2.031-4.56 4.537 0 .355.041.703.119 1.035-3.79-.19-7.149-1.995-9.398-4.742-.392.671-.617 1.45-.617 2.281 0 1.575.805 2.963 2.029 3.777-.747-.022-1.45-.228-2.066-.566v.058c0 2.197 1.572 4.031 3.657 4.447-.383.104-.785.16-1.2.16-.294 0-.58-.029-.859-.082.58 1.803 2.264 3.115 4.259 3.15-1.56 1.219-3.526 1.942-5.663 1.942-.368 0-.73-.021-1.087-.063 2.018 1.289 4.415 2.039 6.989 2.039 8.388 0 12.974-6.914 12.974-12.909l-.016-.586c.894-.641 1.666-1.441 2.275-2.351z"/></svg>